<svg id="SvgjsSvg1001" width="44" height="44" xmlns="http://www.w3.org/2000/svg" version="1.1" xmlns:xlink="http://www.w3.org/1999/xlink" xmlns:svgjs="http://svgjs.com/svgjs">
<defs id="SvgjsDefs1002"></defs><g id="SvgjsG1008" transform="matrix(1,0,0,1,0,0)">
<svg xmlns="http://www.w3.org/2000/svg" fill="none" viewBox="0 0 44 44" width="44" height="44">
<path fill="#4f7334" d="M30.4753 33.9788L33.4384 31.0157C32.6066 30.2203 31.2465 28.8783 30.9003 28.3258 30.2021 27.2207 30.955 26.3888 31.9022 25.4416L36.4076 20.9362 39.9597 24.4883 42.9411 21.507 39.389 17.9549 42.9411 14.4027 39.1522 10.6138 28.0404 21.7256C25.5934 24.1726 24.124 26.1885 25.9578 29.0544 27.1054 30.8578 29.1577 32.6673 30.4753 33.9788zM12.4658 9.14447L9.50265 12.1076C10.3345 12.903 11.6946 14.2449 12.0407 14.7975 12.739 15.9026 11.9861 16.7344 11.0389 17.6817L6.53345 22.1871 2.98134 18.635 0 21.6163 3.55211 25.1684 0 28.7205 3.78892 32.5094 14.9006 21.3977C17.3476 18.9507 18.8171 16.9348 16.9833 14.0688 15.8357 12.2655 13.7834 10.456 12.4658 9.14447zM9.05334 30.615L12.0165 33.5781C12.8119 32.7462 14.1538 31.3861 14.7064 31.04 15.8115 30.3417 16.6433 31.0946 17.5905 32.0419L22.096 36.5473 18.5439 40.0994 21.5252 43.0807 25.0773 39.5286 28.6294 43.0807 32.4183 39.2918 21.3066 28.1801C18.8596 25.7331 16.8437 24.2637 13.9777 26.0974 12.1743 27.245 10.3649 29.2973 9.05334 30.615zM33.9303 12.4658L30.9672 9.50265C30.1717 10.3345 28.8298 11.6946 28.2773 12.0407 27.1722 12.739 26.3403 11.9861 25.3931 11.0389L20.8877 6.53345 24.4398 2.98134 21.4645 0 17.9124 3.55211 14.3542 0 10.5653 3.78892 21.677 14.9006C24.124 17.3476 26.1399 18.8171 29.0059 16.9833 30.8093 15.8357 32.6187 13.7834 33.9303 12.4658z" class="colorAEF868 svgShape"></path></svg></g></svg>