<svg width="220" height="44" viewBox="0 0 220 44" fill="none" xmlns="http://www.w3.org/2000/svg">
<path d="M59.4387 30.3538H57.0221C54.5811 30.3538 54.1257 29.8316 54.1257 27.1903V20.2743H59.4387V16.7526H54.1257V11.4396H49.845V27.421C49.845 32.3697 51.0897 33.8755 56.7245 33.8755H59.4387V30.3538Z" fill="white"/>
<path d="M220 30.3538H217.583C215.142 30.3538 214.687 29.8316 214.687 27.1903V20.2743H220V16.7526H214.687V11.4396H210.406V27.421C210.406 32.3697 211.651 33.8755 217.286 33.8755H220V30.3538Z" fill="white"/>
<path d="M62.6143 33.8756V9.41156H66.895V17.5784C67.2654 17.2262 67.8179 16.9165 68.5405 16.6372C69.2631 16.364 70.2832 16.2243 71.6008 16.2243C73.641 16.2243 75.2622 16.6554 76.4584 17.5237C77.6545 18.392 78.2557 19.8432 78.2557 21.8895V33.8756H73.9749V22.7456C73.9749 22.2417 73.9446 21.8045 73.8778 21.428C73.811 21.0576 73.6653 20.7419 73.4345 20.4869C73.2038 20.2318 72.8698 20.0497 72.4326 19.9282C71.9955 19.8068 71.4004 19.7461 70.6536 19.7461C69.9067 19.7461 69.257 19.8129 68.7773 19.9464C68.2916 20.08 67.9151 20.2925 67.6419 20.5901C67.3686 20.8876 67.1743 21.2823 67.065 21.7741C66.9557 22.2659 66.9011 22.8671 66.9011 23.5714V33.8756H62.6203H62.6143Z" fill="white"/>
<path d="M86.0279 33.8756H81.7472V22.612C81.7472 21.513 81.899 20.584 82.2087 19.8311C82.5183 19.0782 82.9677 18.4649 83.5566 18.0034C84.1517 17.5419 84.8743 17.208 85.7304 17.0015C86.5866 16.7951 87.5641 16.6858 88.6632 16.6858H90.8005C91.3956 16.6858 91.9724 16.6979 92.5432 16.7162L91.851 20.2743C91.4138 20.25 90.928 20.2379 90.3998 20.2258C89.8715 20.2136 89.4343 20.2075 89.0821 20.2075C88.3778 20.2075 87.8313 20.2743 87.4366 20.4079C87.042 20.5415 86.7323 20.7297 86.5137 20.9848C86.2951 21.2398 86.1554 21.5555 86.1008 21.9381C86.0462 22.3206 86.0158 22.776 86.0158 23.3043V33.8756H86.0279Z" fill="white"/>
<path d="M101.93 16.2243C103.4 16.2243 104.651 16.3579 105.683 16.619C106.715 16.8801 107.559 17.3294 108.221 17.9548C108.877 18.5802 109.356 19.4182 109.654 20.4747C109.952 21.5312 110.097 22.8428 110.097 24.4275V26.2066C110.097 27.7854 109.952 29.103 109.654 30.1595C109.356 31.216 108.883 32.054 108.221 32.6794C107.565 33.3048 106.715 33.748 105.683 34.0152C104.651 34.2763 103.4 34.4099 101.93 34.4099C100.461 34.4099 99.1737 34.2763 98.1415 34.0152C97.1093 33.7541 96.2653 33.3048 95.6034 32.6794C94.9476 32.054 94.468 31.216 94.1704 30.1595C93.8729 29.103 93.7272 27.7914 93.7272 26.2066V24.4275C93.7272 22.8488 93.8729 21.5312 94.1704 20.4747C94.468 19.4182 94.9416 18.5802 95.6034 17.9548C96.2592 17.3294 97.1093 16.8862 98.1415 16.619C99.1737 16.3579 100.437 16.2243 101.93 16.2243ZM105.75 24.3547C105.75 23.3467 105.695 22.527 105.586 21.9016C105.476 21.2762 105.282 20.7965 105.009 20.4686C104.736 20.1407 104.353 19.9221 103.855 19.8128C103.363 19.7035 102.72 19.6489 101.93 19.6489C101.141 19.6489 100.491 19.7035 99.9874 19.8128C99.4834 19.9221 99.0948 20.1407 98.8155 20.4686C98.5423 20.7965 98.3479 21.2762 98.2386 21.9016C98.1294 22.527 98.0747 23.3467 98.0747 24.3547V26.2977C98.0747 27.3057 98.1294 28.1193 98.2386 28.7326C98.3479 29.3459 98.5423 29.8195 98.8155 30.1474C99.0887 30.4752 99.4773 30.6938 99.9874 30.8031C100.491 30.9124 101.141 30.9671 101.93 30.9671C102.72 30.9671 103.363 30.9124 103.855 30.8031C104.347 30.6938 104.736 30.4752 105.009 30.1474C105.282 29.8195 105.476 29.3459 105.586 28.7326C105.695 28.1193 105.75 27.3057 105.75 26.2977V24.3547Z" fill="white"/>
<path d="M121.033 34.4038C119.715 34.4038 118.568 34.3006 117.59 34.0881C116.612 33.8816 115.799 33.5416 115.155 33.068C114.505 32.5944 114.032 31.9811 113.722 31.2221C113.413 30.4631 113.261 29.528 113.261 28.4047V16.7526H117.541V27.8461C117.541 28.35 117.572 28.7872 117.639 29.1637C117.705 29.5402 117.851 29.8498 118.082 30.1048C118.313 30.3599 118.665 30.5481 119.138 30.6817C119.612 30.8153 120.244 30.8821 121.033 30.8821C121.822 30.8821 122.448 30.8153 122.909 30.6817C123.371 30.5481 123.717 30.3599 123.947 30.1048C124.178 29.8498 124.324 29.5402 124.391 29.1637C124.457 28.7872 124.488 28.35 124.488 27.8461V16.7526H128.769V28.4108C128.769 30.627 128.137 32.1815 126.874 33.068C125.611 33.9545 123.662 34.4038 121.027 34.4038H121.033Z" fill="white"/>
<path d="M144.282 32.0297C143.845 32.3819 143.28 32.6673 142.6 32.8858C141.92 33.1044 141.01 33.2137 139.868 33.2137C138.441 33.2137 137.251 33.0498 136.298 32.7219C135.344 32.394 134.573 31.8961 133.99 31.2221C133.407 30.5542 132.988 29.7163 132.739 28.7023C132.484 27.6943 132.363 26.5163 132.363 25.1805V24.2576C132.363 22.9642 132.478 21.8166 132.709 20.8147C132.94 19.8189 133.365 18.9749 133.978 18.2949C134.591 17.6148 135.423 17.0987 136.462 16.7465C137.506 16.3943 138.836 16.2183 140.463 16.2183C142.09 16.2183 143.457 16.4004 144.513 16.7587C145.57 17.123 146.395 17.633 146.997 18.2888C147.598 18.9446 148.011 19.7461 148.229 20.6751C148.448 21.6102 148.557 22.6424 148.557 23.7839V32.2786C148.557 33.5963 148.411 34.7257 148.114 35.6729C147.816 36.614 147.343 37.3852 146.681 37.9802C146.025 38.5753 145.175 39.0064 144.143 39.2796C143.11 39.5529 141.86 39.6925 140.39 39.6925H137.725C137.239 39.6925 136.711 39.6925 136.128 39.6743C135.545 39.6622 134.859 39.644 134.069 39.6257L134.761 36.2011C135.375 36.2254 135.927 36.2376 136.425 36.2497C136.917 36.2619 137.378 36.2679 137.81 36.2679H140.196C140.943 36.2679 141.574 36.2072 142.09 36.0858C142.606 35.9643 143.032 35.7579 143.359 35.4604C143.687 35.1628 143.924 34.7499 144.07 34.2278C144.209 33.6995 144.282 33.0437 144.282 32.2544V32.0236V32.0297ZM140.493 29.7891C141.283 29.7891 141.92 29.7284 142.406 29.607C142.886 29.4855 143.274 29.2852 143.56 28.9998C143.845 28.7144 144.039 28.3319 144.137 27.8461C144.234 27.3664 144.282 26.7471 144.282 26.0002V24.3851C144.282 23.4196 144.252 22.6303 144.185 22.017C144.118 21.4037 143.954 20.918 143.693 20.5658C143.432 20.2136 143.044 19.9707 142.54 19.8432C142.036 19.7097 141.356 19.6429 140.499 19.6429C139.643 19.6429 138.963 19.7097 138.459 19.8432C137.955 19.9768 137.573 20.2136 137.306 20.5658C137.045 20.918 136.875 21.3977 136.814 22.017C136.747 22.6303 136.717 23.4196 136.717 24.3851V25.0408C136.717 26.0063 136.753 26.7957 136.832 27.4089C136.911 28.0222 137.075 28.5079 137.324 28.8601C137.579 29.2123 137.955 29.4552 138.459 29.5827C138.963 29.7102 139.643 29.7831 140.499 29.7831L140.493 29.7891Z" fill="white"/>
<path d="M152.055 33.8756V9.41156H156.335V17.5784C156.706 17.2262 157.258 16.9165 157.981 16.6372C158.703 16.364 159.723 16.2243 161.041 16.2243C163.081 16.2243 164.703 16.6554 165.899 17.5237C167.095 18.392 167.696 19.8432 167.696 21.8895V33.8756H163.415V22.7456C163.415 22.2417 163.385 21.8045 163.318 21.428C163.251 21.0576 163.106 20.7419 162.875 20.4869C162.644 20.2318 162.31 20.0497 161.873 19.9282C161.436 19.8068 160.841 19.7461 160.094 19.7461C159.347 19.7461 158.697 19.8129 158.218 19.9464C157.732 20.08 157.355 20.2925 157.082 20.5901C156.809 20.8876 156.615 21.2823 156.505 21.7741C156.396 22.2659 156.341 22.8671 156.341 23.5714V33.8756H152.061H152.055Z" fill="white"/>
<path d="M187.818 26.1034C187.818 27.5972 187.691 28.8723 187.442 29.9227C187.187 30.9792 186.762 31.8293 186.155 32.4912C185.554 33.1469 184.758 33.6327 183.768 33.9424C182.779 34.252 181.552 34.4038 180.083 34.4038C179.093 34.4038 178.261 34.3006 177.581 34.0881C176.901 33.8817 176.342 33.5902 175.899 33.2137V39.6318H171.618V24.3547C171.618 22.8185 171.77 21.5312 172.08 20.499C172.39 19.4668 172.869 18.6349 173.531 17.9974C174.187 17.3598 175.043 16.9044 176.081 16.6312C177.126 16.3579 178.37 16.2183 179.816 16.2183C181.261 16.2183 182.463 16.3518 183.471 16.6129C184.479 16.874 185.311 17.3294 185.954 17.9791C186.604 18.6288 187.072 19.485 187.369 20.5476C187.667 21.6102 187.812 22.946 187.812 24.549V26.0974L187.818 26.1034ZM179.688 30.9792C180.477 30.9792 181.121 30.9246 181.613 30.8153C182.105 30.706 182.493 30.4753 182.767 30.1231C183.04 29.7709 183.228 29.2852 183.325 28.6597C183.422 28.0343 183.471 27.2085 183.471 26.1763V24.4944C183.471 23.4378 183.416 22.5938 183.307 21.9624C183.198 21.3248 183.003 20.839 182.73 20.499C182.457 20.159 182.074 19.9343 181.576 19.825C181.085 19.7157 180.453 19.6611 179.682 19.6611C178.911 19.6611 178.285 19.7157 177.806 19.825C177.32 19.9343 176.937 20.1529 176.652 20.4808C176.367 20.8087 176.166 21.2884 176.057 21.9138C175.948 22.5392 175.893 23.3589 175.893 24.3669V26.7046C175.893 27.5607 175.954 28.2711 176.075 28.8298C176.197 29.3884 176.397 29.8316 176.682 30.1474C176.968 30.4631 177.35 30.6878 177.836 30.8032C178.316 30.9246 178.935 30.9853 179.682 30.9853L179.688 30.9792Z" fill="white"/>
<path d="M198.748 34.4038C197.43 34.4038 196.283 34.3006 195.305 34.0881C194.328 33.8816 193.514 33.5416 192.87 33.068C192.221 32.5944 191.747 31.9811 191.437 31.2221C191.128 30.4631 190.976 29.528 190.976 28.4047V16.7526H195.257V27.8461C195.257 28.35 195.287 28.7872 195.354 29.1637C195.421 29.5402 195.566 29.8498 195.797 30.1048C196.028 30.3599 196.38 30.5481 196.854 30.6817C197.327 30.8153 197.959 30.8821 198.748 30.8821C199.537 30.8821 200.163 30.8153 200.624 30.6817C201.086 30.5481 201.432 30.3599 201.663 30.1048C201.893 29.8498 202.039 29.5402 202.106 29.1637C202.173 28.7872 202.203 28.35 202.203 27.8461V16.7526H206.484V28.4108C206.484 30.627 205.852 32.1815 204.589 33.068C203.326 33.9545 201.377 34.4038 198.742 34.4038H198.748Z" fill="white"/>
<path d="M30.4753 33.9788L33.4384 31.0157C32.6066 30.2203 31.2465 28.8783 30.9003 28.3258C30.2021 27.2207 30.955 26.3888 31.9022 25.4416L36.4076 20.9362L39.9597 24.4883L42.9411 21.507L39.389 17.9549L42.9411 14.4027L39.1522 10.6138L28.0404 21.7256C25.5934 24.1726 24.124 26.1885 25.9578 29.0544C27.1054 30.8578 29.1577 32.6673 30.4753 33.9788Z" fill="#AEF868"/>
<path d="M12.4658 9.14447L9.50265 12.1076C10.3345 12.903 11.6946 14.2449 12.0407 14.7975C12.739 15.9026 11.9861 16.7344 11.0389 17.6817L6.53345 22.1871L2.98134 18.635L0 21.6163L3.55211 25.1684L0 28.7205L3.78892 32.5094L14.9006 21.3977C17.3476 18.9507 18.8171 16.9348 16.9833 14.0688C15.8357 12.2655 13.7834 10.456 12.4658 9.14447Z" fill="#AEF868"/>
<path d="M9.05334 30.615L12.0165 33.5781C12.8119 32.7462 14.1538 31.3861 14.7064 31.04C15.8115 30.3417 16.6433 31.0946 17.5905 32.0419L22.096 36.5473L18.5439 40.0994L21.5252 43.0807L25.0773 39.5286L28.6294 43.0807L32.4183 39.2918L21.3066 28.1801C18.8596 25.7331 16.8437 24.2637 13.9777 26.0974C12.1743 27.245 10.3649 29.2973 9.05334 30.615Z" fill="#AEF868"/>
<path d="M33.9303 12.4658L30.9672 9.50265C30.1717 10.3345 28.8298 11.6946 28.2773 12.0407C27.1722 12.739 26.3403 11.9861 25.3931 11.0389L20.8877 6.53345L24.4398 2.98134L21.4645 0L17.9124 3.55211L14.3542 0L10.5653 3.78892L21.677 14.9006C24.124 17.3476 26.1399 18.8171 29.0059 16.9833C30.8093 15.8357 32.6187 13.7834 33.9303 12.4658Z" fill="#AEF868"/>
</svg>
